<svg xmlns="http://www.w3.org/2000/svg" viewBox="0 0 55.27 51.74"><defs><style>.cls-1{fill:#010101;}</style></defs><title>Asset 1</title><g id="Layer_2" data-name="Layer 2"><g id="Icons"><path class="cls-1" d="M42.53,19a1,1,0,0,0-1.11-.78l-4.19.38A13,13,0,0,0,35,16.42l.32-4.18a1,1,0,0,0-.79-1.1L29.22,9.66a1.06,1.06,0,0,0-1.22.55L26.13,14a12.13,12.13,0,0,0-3.08.79l-3.51-2.36a1.06,1.06,0,0,0-1.34.13l-3.86,3.9a1,1,0,0,0-.12,1.33l2.36,3.52a11.84,11.84,0,0,0-.79,3.15L12.06,26.3a1.07,1.07,0,0,0-.56,1.23l1.42,5.19a1.06,1.06,0,0,0,1.09.79l4.13-.31a9.76,9.76,0,0,0,1,1.27,10.87,10.87,0,0,0,1.2,1.05l-.28,4.07a1.05,1.05,0,0,0,.79,1.09l5.18,1.42h.29a1,1,0,0,0,.93-.57l1.93-3.68a11.38,11.38,0,0,0,3.1-.78l3.51,2.36a1.06,1.06,0,0,0,1.32-.17L41,35.41a1.06,1.06,0,0,0,.14-1.34L38.8,30.56a11.56,11.56,0,0,0,.79-3.11l3.86-1.93A1,1,0,0,0,44,24.3ZM22.46,25.87a5.31,5.31,0,1,1,5.31,5.31h0A5.31,5.31,0,0,1,22.46,25.87Z"/><path class="cls-1" d="M11.61,41.94a22.72,22.72,0,0,1-5.22-24.1l.28,1.24A1.58,1.58,0,0,0,8.21,20.3a2,2,0,0,0,.35,0,1.57,1.57,0,0,0,1.18-1.89h0L8.51,13a1.59,1.59,0,0,0-1.89-1.19h0L1.22,13a1.58,1.58,0,0,0,.71,3.07h0l2-.46a25.87,25.87,0,0,0,36.8,32.58L39.16,45.5A22.74,22.74,0,0,1,11.61,41.94Z"/><path class="cls-1" d="M53.34,35.63l-1.87.43a25.88,25.88,0,0,0-37-32.41L16,6.35A22.73,22.73,0,0,1,48.9,34l-.3-1.35a1.57,1.57,0,0,0-3.07.7l1.23,5.39A1.56,1.56,0,0,0,48.3,40a1.34,1.34,0,0,0,.35,0l5.4-1.24a1.58,1.58,0,1,0-.71-3.07Z"/></g></g></svg>