<svg xmlns="http://www.w3.org/2000/svg" viewBox="0 0 60 50"><defs><style>.cls-1{fill:#202020;}</style></defs><title>Asset 5</title><g id="Layer_2" data-name="Layer 2"><g id="Icons"><path class="cls-1" d="M40,0H20a20,20,0,0,0,0,40h2V50L34,40h6A20,20,0,0,0,40,0ZM20.1,22.1a3,3,0,1,1-4.8-3.6,2.84,2.84,0,0,1,.6-.6,3.11,3.11,0,0,1,4.2,0,2.9,2.9,0,0,1,0,4.2Zm12,0a3,3,0,0,1-4.2-4.2,3.11,3.11,0,0,1,4.2,0,3,3,0,0,1,.06,4.24l-.06.06Zm12,0a3,3,0,1,1-4.2-4.2,3.11,3.11,0,0,1,4.2,0A3,3,0,0,1,44.1,22.1Z"/></g></g></svg>