<?xml version="1.0" encoding="utf-8"?>
<!-- Generator: Adobe Illustrator 22.1.0, SVG Export Plug-In . SVG Version: 6.00 Build 0)  -->
<svg version="1.1" id="Layer_1" xmlns="http://www.w3.org/2000/svg" xmlns:xlink="http://www.w3.org/1999/xlink" x="0px" y="0px"
	 viewBox="0 0 35 34" style="enable-background:new 0 0 35 34;" xml:space="preserve">
<style type="text/css">
	.st0{display:none;fill:#231F20;}
	.st1{fill:#FFFFFF;}
</style>
<path class="st0" d="M25.5-0.5H9c-5.1,0-9.2,4.2-9.2,9.4V25c0,5.2,4.1,9.4,9.2,9.4h16.5c5.1,0,9.2-4.2,9.2-9.4V8.9
	C34.8,3.7,30.6-0.5,25.5-0.5z M31.6,24.8c0,3.6-2.9,6.5-6.4,6.5h-16c-3.5,0-6.4-2.9-6.4-6.5V9.2c0-3.6,2.9-6.5,6.4-6.5h16
	c3.5,0,6.4,2.9,6.4,6.5V24.8z"/>
<path class="st0" d="M17.3,8c-4.9,0-8.8,4-8.8,9s3.9,9,8.8,9s8.8-4,8.8-9S22.1,8,17.3,8z M17.3,22.8c-3.1,0-5.7-2.6-5.7-5.8
	s2.5-5.8,5.7-5.8c3.1,0,5.7,2.6,5.7,5.8C22.9,20.2,20.4,22.8,17.3,22.8z"/>
<ellipse class="st0" cx="26.5" cy="7.5" rx="2" ry="2"/>
<path class="st1" d="M31.9,0H3C1.6,0,0.4,1.1,0.4,2.5v29.1C0.4,32.9,1.6,34,3,34h29c1.4,0,2.5-1.1,2.5-2.5v-29
	C34.4,1.1,33.3,0,31.9,0z M10.5,29h-5V12.7h5V29z M8,10.5c-1.6,0-2.9-1.3-2.9-2.9S6.4,4.7,8,4.7s2.9,1.3,2.9,2.9S9.6,10.5,8,10.5z
	 M29.4,29h-5v-7.9c0-1.9,0-4.3-2.6-4.3s-3,2.1-3,4.2v8h-5V12.7h4.8V15h0.1c0.7-1.3,2.3-2.6,4.8-2.6c5.1,0,6,3.4,6,7.7V29H29.4z"/>
</svg>
