<svg xmlns="http://www.w3.org/2000/svg" viewBox="0 0 60.25 66.92"><defs><style>.cls-1{fill:#010101;}</style></defs><title>Asset 7</title><g id="Layer_2" data-name="Layer 2"><g id="Icons"><path class="cls-1" d="M49.56,8.26a1.74,1.74,0,0,1-.77-.18A38.3,38.3,0,0,0,30.15,3.35,38.53,38.53,0,0,0,11.52,8.06,1.68,1.68,0,1,1,9.91,5.12,41.83,41.83,0,0,1,30.15,0,41.92,41.92,0,0,1,50.33,5.1a1.67,1.67,0,0,1-.77,3.16ZM1.68,25.83a1.73,1.73,0,0,1-1-.3,1.66,1.66,0,0,1-.4-2.32,34.73,34.73,0,0,1,12.56-11,38.61,38.61,0,0,1,34.52,0A35.09,35.09,0,0,1,59.94,23.09,1.67,1.67,0,0,1,57.21,25a31.38,31.38,0,0,0-11.35-9.84,35.22,35.22,0,0,0-31.45,0A31.59,31.59,0,0,0,3.05,25.15,1.69,1.69,0,0,1,1.68,25.83ZM22.61,66.2a1.64,1.64,0,0,1-1.19-.5,34.86,34.86,0,0,1-6.72-8.82,29.73,29.73,0,0,1-3.53-14.53c0-9.94,8.49-18,19-18s19,8.08,19,18a1.68,1.68,0,0,1-3.35,0c0-8.1-7-14.69-15.61-14.69S14.51,34.25,14.51,42.35a26.43,26.43,0,0,0,3.1,12.89,31.37,31.37,0,0,0,6.17,8.1,1.65,1.65,0,0,1,0,2.36A1.49,1.49,0,0,1,22.61,66.2Zm24-6.19a18.16,18.16,0,0,1-10.37-3,17.85,17.85,0,0,1-7.95-14.69,1.68,1.68,0,0,1,3.35,0,14.49,14.49,0,0,0,15,14.31,22.5,22.5,0,0,0,3.5-.32,1.68,1.68,0,0,1,.59,3.3A23.85,23.85,0,0,1,46.58,60Zm-6.74,6.91a1.21,1.21,0,0,1-.43-.06,25.54,25.54,0,0,1-12.43-7,24.5,24.5,0,0,1-7.25-17.47A10.09,10.09,0,0,1,30,32.51a10.08,10.08,0,0,1,10.3,9.85,7,7,0,0,0,13.92,0c0-12.61-10.87-22.87-24.24-22.87A24.42,24.42,0,0,0,7.9,33,21.55,21.55,0,0,0,6,42.36,33.41,33.41,0,0,0,8.17,54.43,1.68,1.68,0,0,1,5,55.6,37.28,37.28,0,0,1,2.58,42.36,24.8,24.8,0,0,1,4.87,31.54,27.79,27.79,0,0,1,30,16.16c15.21,0,27.59,11.76,27.59,26.22a10.32,10.32,0,0,1-20.61,0,6.77,6.77,0,0,0-7-6.51,6.75,6.75,0,0,0-7,6.51,21.19,21.19,0,0,0,6.26,15.09,22.45,22.45,0,0,0,11,6.17,1.68,1.68,0,0,1,1.17,2.06A1.66,1.66,0,0,1,39.84,66.92Z"/></g></g></svg>