<svg xmlns="http://www.w3.org/2000/svg" viewBox="0 0 60.04 60"><defs><style>.cls-1{fill:#202020;}</style></defs><title>Asset 9</title><g id="Layer_2" data-name="Layer 2"><g id="Icons"><path class="cls-1" d="M16,25.9,31.21,0H30A29.89,29.89,0,0,0,7.11,10.6l.4.7Z"/><path class="cls-1" d="M56.51,16A30,30,0,0,0,35.51.5l-.4.7L26.41,16Z"/><path class="cls-1" d="M58.31,20H40.51l15,25.9A30,30,0,0,0,58.31,20Z"/><path class="cls-1" d="M44,34.1,28.61,60H30a29.9,29.9,0,0,0,22.8-10.6l-.4-.7Z"/><path class="cls-1" d="M3.51,44a30,30,0,0,0,20.8,15.4l.4-.7L33.41,44Z"/><path class="cls-1" d="M19.51,40l-15-25.8A30,30,0,0,0,1.71,40Z"/></g></g></svg>