<svg xmlns="http://www.w3.org/2000/svg" viewBox="0 0 60 48"><defs><style>.cls-1{fill:#202020;}</style></defs><title>Asset 2</title><g id="Layer_2" data-name="Layer 2"><g id="Icons"><path class="cls-1" d="M0,14V48H60V14ZM25.54,36.68a2,2,0,1,1-3,2.69l0,0L14.38,30l8.15-9.3a2,2,0,1,1,3.07,2.56l-.06.07L19.69,30Zm12,2.64a2,2,0,0,1-3.06-2.58l.05-.06L40.38,30l-5.85-6.67a2,2,0,0,1,2.95-2.71l.06.07L45.69,30Z"/><path class="cls-1" d="M0,0V10H60V0ZM6,7A2,2,0,1,1,8,5,2,2,0,0,1,6,7Zm6,0a2,2,0,1,1,2-2A2,2,0,0,1,12,7Zm6,0a2,2,0,1,1,2-2A2,2,0,0,1,18,7Z"/></g></g></svg>