<svg xmlns="http://www.w3.org/2000/svg" viewBox="0 0 190.66 78.13"><defs><style>.cls-1{fill:#010101;fill-rule:evenodd;}</style></defs><title>Asset 3</title><g id="Layer_2" data-name="Layer 2"><g id="Layer_1-2" data-name="Layer 1"><path class="cls-1" d="M189.51,5.64a5.85,5.85,0,0,0-1.28-1.52,4.79,4.79,0,0,0-.78-.67,9.06,9.06,0,0,0-7.29-1A44.56,44.56,0,0,0,174,5.78c-1,.61-1.94,1.27-2.93,1.88s-2,1.13-3,1.75c-2.7,1.67-5.4,3.4-8.12,5.12-.09.06-.67.33-.67.33a4.18,4.18,0,0,0-.13-2,8.35,8.35,0,0,0-.7-1.59c-.26-.52-2.87-4.09-4-5.52a18.71,18.71,0,0,0-3.67-3.64A9.49,9.49,0,0,0,144.05,1c-3.39.78-4.32,2.57-7,6.09a21.14,21.14,0,0,0-3.6-1.69,6,6,0,0,0-5.89,1.41,18.82,18.82,0,0,0-1.88,1.91c-3.61,4.09-7,8.55-10.35,12.78a37.51,37.51,0,0,0,1.28-5.47,9.9,9.9,0,0,0-.2-2.59c-1-4.34-5-7.27-7.33-8.51-2-1.09-4.36-2.36-6.84-3.39a11.1,11.1,0,0,0-2.85-.8c-2-.21-3.32-.09-6.49,2.38A9.38,9.38,0,0,0,91.36,4.8,29.13,29.13,0,0,0,89,2.68,9.6,9.6,0,0,0,85.5,1.34c-3.26-.66-6,1.74-6.43,2.17-.95.9-1.87,1.76-2.75,2.73-1.84,2-3.36,4.37-4.88,6.34,0,.1-.06.06,0,0a17.42,17.42,0,0,0-2.63-3.3,30.16,30.16,0,0,0-3.15-2.91,31.32,31.32,0,0,0-3.79-2.48A29.5,29.5,0,0,0,52.1.51,35.93,35.93,0,0,0,46.62,0a45,45,0,0,0-5,.28A39,39,0,0,0,28.54,3.51c-1.32.63-2.6,1.22-3.79,1.94A18.48,18.48,0,0,0,21.46,8a11.6,11.6,0,0,0-1.71,1.79,5.63,5.63,0,0,0-.38,6.91c.2.29,3.73,5.71,4.5,6.79,0,0,.22.1.09.18-4.3,7.43-8.71,14.73-12.85,22.46A88,88,0,0,0,7,54.55a12.46,12.46,0,0,0-3.37,1.36A9.42,9.42,0,0,0,.19,61.24L.07,62c-.62,4.6,3.21,8.23,3.58,8.59a19.86,19.86,0,0,0,2.5,1.94,36.7,36.7,0,0,0,5.94,3.22A17.85,17.85,0,0,0,15.47,77a13.14,13.14,0,0,0,3.7.29,19.66,19.66,0,0,0,3.47-.63,22.62,22.62,0,0,0,5.8-2.28c.88-.48,1.82-.92,2.72-1.39,3.39-1.78,6.75-3.69,9.92-5.66.2-.12.37-.35.63-.34a12.25,12.25,0,0,0,.73,1.67,14.21,14.21,0,0,0,2.78,4.21C46,73.73,50.12,79,55.48,77a17,17,0,0,0,1.73-.8A6,6,0,0,0,58.68,75,11.54,11.54,0,0,0,61,71.73a19.56,19.56,0,0,0,2.87,2.61A11.23,11.23,0,0,0,68,76.11c.63.15,4.87,1.29,7.28-2.59.41-.67,1-1.36,1.41-2.07,2.29-3.62,4.7-7.51,6.8-10.8a17,17,0,0,0,.59,5c.26.68.6,2.4,3.71,5.52a31.5,31.5,0,0,0,5.36,4.43,16.13,16.13,0,0,0,2.24,1.12c.8.35,1.62.71,2.46,1,.48.17,4.54,1.22,7.22-1.06.55-.47,1.09-1,1.65-1.54a29.37,29.37,0,0,0,2.71-3.91,26.85,26.85,0,0,0,3.69,3c.43.26,1.41.93,1.88,1.13s6.1,3.7,9.84-3.32c.35-.65.74-1.35,1.14-2.07,1.52-2.82,3.09-5.66,4.49-8.32a116.86,116.86,0,0,0,9.15,11.59c.61.64,1.14,1.25,1.72,1.8a8.22,8.22,0,0,0,5.17,2.28,18.61,18.61,0,0,0,5.67-.39c.88-.18,1.7-.42,2.55-.65a11.61,11.61,0,0,0,2.36-.93c.39-.19.76-.34,1.11-.54s2.66-1.27,3.81-5.3a7.11,7.11,0,0,0-1.24-5.95c-.49-.69-1.09-1.35-1.56-2-2-2.85-3.84-5.56-5.64-8.42-.91-1.44-1.84-2.86-2.65-4.36,7-5.43,14.41-10.25,21.45-15.64,4.37-3.34,8.94-6.57,12.92-10.46a20,20,0,0,0,2.84-3.52,22.92,22.92,0,0,0,2.42-6.36l.11-.63A12.59,12.59,0,0,0,189.51,5.64ZM184,13.41c-.84,3.05-2.52,4.4-4.34,6-2.64,2.35-5.42,4.44-8.22,6.61-1.88,1.44-3.77,2.92-5.61,4.22-3.9,2.74-7.56,5.51-11.39,8.21-2.83,2-5.58,4.07-8.48,6.23-.43.33-.86.67-1.4,1.06s-1.21.82-1.3,1.19.22,1,.46,1.55a44.76,44.76,0,0,0,2.14,4c1,1.8,2.15,3.46,3.21,5.1,1.92,3,3.8,5.82,5.95,8.72.47.64,1.12,1.09.83,2A2.84,2.84,0,0,1,154.2,70a12.37,12.37,0,0,1-2.27.66c-.77.2-1.55.41-2.37.56a6.55,6.55,0,0,1-2.75,0,4.31,4.31,0,0,1-2.05-1.33,76.21,76.21,0,0,1-7.09-8.71c-.89-1.24-1.81-2.44-2.56-3.7-1.18-2-2.28-3.86-3.46-5.8a6.65,6.65,0,0,0-1.31-1.81,1.74,1.74,0,0,0-.49.52,15.64,15.64,0,0,0-1.18,1.86c-1.49,2.61-2.86,5.19-4.36,8-.91,1.69-1.93,3.47-2.91,5.3-.82,1.52-1.82,4.18-3.6,4.33a2.73,2.73,0,0,1-1.93-.83,19.68,19.68,0,0,1-2.42-2.41,6.38,6.38,0,0,1-1.87-4.19,5.88,5.88,0,0,1,.75-2.67c.39-.77.77-1.56,1.13-2.28.78-1.55,1.46-3.06,2.3-4.55,1.2-2.16,2.44-4.38,3.66-6.55.41-.74.74-1.5,1.16-2.24.79-1.4,1.63-2.79,2.49-4.28.39-.66.8-1.45,1.23-2.18.19-.31.63-1.08.91-1.67.12-.27.22-.37.08-.51s-.29.13-.42.33C117.82,46.26,111.06,57,104.16,67.84c-.46.73-.94,1.57-1.47,2.39s-1.37,1.9-2.43,1.81a8.73,8.73,0,0,1-2.72-.92,17.26,17.26,0,0,1-2-1.38,23.68,23.68,0,0,1-3.64-3.07,8.3,8.3,0,0,1-2.26-4.05,10.43,10.43,0,0,1,.1-2.91,140.75,140.75,0,0,1,2.65-15.66c1-4.09,2-8.13,2.72-12.12-.52,0-.76.55-1,.89-1.88,2.56-3.68,5.4-5.45,8.14-2,3.13-4.12,6.24-6.11,9.46-3.68,5.94-7.45,12.1-11.27,18a10.61,10.61,0,0,1-.77,1.16c-1.07,1.2-3.09-.3-4-1.06a8.79,8.79,0,0,1-3-5.06c-.43-2.4,1-4.62,2-6.39,3.81-6.45,7.63-12.84,11.49-19.28,1.6-2.66,3.29-5.36,5-8.1.31-.49.84-1.33,1.28-2a1.57,1.57,0,0,0,.22-.33c.11-.22.1-.18,0-.28s-.38.18-.56.39c-.46.55-1.08,1.31-1.54,1.88-.74.92-1.56,2-2,2.62C66.15,50.58,56.8,66.77,55.62,68.8c-.51.88-1.26,2.4-2.24,2.37a3.1,3.1,0,0,1-1.5-.75,19,19,0,0,1-3.06-3.17,6.77,6.77,0,0,1-1.37-2.6A4.76,4.76,0,0,1,47.2,63a5.43,5.43,0,0,1,.52-1.77C49.59,57.19,52.06,54,54.06,50a34.39,34.39,0,0,0-2.71,2.25c-.9.77-1.81,1.53-2.72,2.29a61.43,61.43,0,0,1-5.69,4.25c-2.95,2-6,3.85-9.07,5.65s-6.08,3.4-9.42,5.09a15.83,15.83,0,0,1-3.54,1.18,9.76,9.76,0,0,1-4.14.25,14.28,14.28,0,0,1-3.86-1.65,36.08,36.08,0,0,1-3.3-2A13.36,13.36,0,0,1,6.77,65a2.54,2.54,0,0,1-.59-1.77c0-.72.27-1.89.91-2.2.43-.2,1.27-.54,1.75-.71,1.33-.46,2.46-.82,3.8-1.28,0-.41-.52-.74-.48-1.22a6.87,6.87,0,0,1,.56-1.33c1.34-2.89,2.91-5.72,4.35-8.38C22.14,38.75,27.68,29.51,33,20.73c-.35,0-.74.27-1.2.36a2.91,2.91,0,0,1-1.95-.21,7.57,7.57,0,0,1-1.43-1.59c-.89-1.15-1.59-2.24-2.45-3.44-.44-.61-1.16-1.44-1-2.36A3.41,3.41,0,0,1,26,12.13a17.89,17.89,0,0,1,4.11-2.57,30.83,30.83,0,0,1,6.32-2.23,46.76,46.76,0,0,1,7.1-1.16,32.55,32.55,0,0,1,8.28.55,24.05,24.05,0,0,1,4.16,1,20.84,20.84,0,0,1,3.44,1.72,23.41,23.41,0,0,1,5,4.15,19.2,19.2,0,0,1,3.42,5.51,11.05,11.05,0,0,1,1.17,7.07,1.68,1.68,0,0,0,.46-.53c2.23-3.05,4.53-6.17,6.82-9.29,2-2.81,4.11-5.94,6.71-8.21.68-.6,1.26-1.07,2.36-.49a6,6,0,0,1,1.06.88,25.68,25.68,0,0,1,2.57,3c1.16,1.5,2.15,2.92,1.88,5.08A61.42,61.42,0,0,1,96.28,8.5,3.45,3.45,0,0,1,98.89,7a6.16,6.16,0,0,1,2,.56c.62.25,1.2.57,1.68.82a21.73,21.73,0,0,1,5.9,3.91A8,8,0,0,1,110.38,15c.46,1.27-.39,2.93-.78,4.25-3,10-6,21-8.24,31.83.23-.12.33-.38.47-.57,7.07-10.08,14.29-19.92,21.8-29.55,2.18-2.79,4.49-5.55,6.86-8.31.38-.44.72-.9,1.07-1,1.52-.53,2.16,1.18,2.6,2.12a9,9,0,0,1,.73,2.32,9.56,9.56,0,0,1-.77,5.6c2.9-3.61,5.61-7.9,8.58-11.75,1-1.22,1.86-3,3.53-3a2.08,2.08,0,0,1,1.09.27,8.86,8.86,0,0,1,1.73,1.73c1,1.16,1.92,2.47,3,3.76a5.57,5.57,0,0,1,1.23,2.05,4.35,4.35,0,0,1-1.07,3.1c-.64.8-1.28,1.58-1.83,2.32-1.18,1.59-2.45,3.21-3.59,4.74-1.82,2.45-3.46,4.81-5.18,7.38A10.2,10.2,0,0,0,140,35c0,.17.2,0,.3-.07a18.34,18.34,0,0,0,2.43-1.37c2.55-1.79,5.1-3.69,7.73-5.43,7-4.62,14-9.23,21.24-13.68.88-.55,1.8-1.08,2.72-1.64s1.75-1.14,2.65-1.69c1.22-.74,2.7-1.67,4.12-2.41.85-.44,2-.94,2.85,0a2,2,0,0,1,.41,1.33A11,11,0,0,1,184,13.41Z"/><path class="cls-1" d="M50.76,17.46a24.32,24.32,0,0,0-7.23.28,18.61,18.61,0,0,0-6.05,1.83s-.22.05,0,.07c1.27.16,2.76.32,4.32.6,1.14.19,3.56.41,4,1.1s-.26,2-.66,2.64c-.53.9-1,1.55-1.43,2.15-1,1.41-2,2.9-2.9,4.25-5.3,8-10.44,15.81-15.12,24.53a8.6,8.6,0,0,0-1.13,2.53,5.41,5.41,0,0,0,2.73-1,62.07,62.07,0,0,0,7.16-4.68,97.45,97.45,0,0,0,16.77-15.8,57.07,57.07,0,0,0,3.59-4.77,15.38,15.38,0,0,0,1.54-2.78,17.3,17.3,0,0,0,1.06-3.47,6.2,6.2,0,0,0-1.17-5.2C55.07,18.42,53.18,17.77,50.76,17.46Z"/></g></g></svg>